<?xml version="1.0" encoding="utf-8"?>
<!-- Generator: Adobe Illustrator 26.0.0, SVG Export Plug-In . SVG Version: 6.00 Build 0)  -->
<svg version="1.1" id="Layer_1" xmlns="http://www.w3.org/2000/svg" xmlns:xlink="http://www.w3.org/1999/xlink" x="0px" y="0px"
	 viewBox="0 0 58 58" style="enable-background:new 0 0 58 58;" xml:space="preserve">
<style type="text/css">
	.st0{fill:#FFFFFF;}
</style>
<path class="st0" d="M58,29.2c-0.1,6.9-2.1,13.3-6.8,18.8c-3.9,4.6-8.9,7.6-14.8,9c-3.3,0.8-6.6,1.1-10,0.8
	c-5.5-0.5-10.7-2.3-15.2-5.7C5.4,47.7,1.8,41.8,0.5,34.6c-1.2-6.7-0.4-13.2,2.8-19.3C7.4,7.5,13.9,2.7,22.4,0.8
	c2.3-0.5,4.6-0.9,7-0.7C41.1,0.6,50,5.5,55.2,16.2C57.2,20.2,58,24.5,58,29.2z M29,4.6c-0.7,0-1.4,0-2.1,0c-0.6,0-1.2,0.1-1.8,0.2
	C17.7,6,11.9,9.6,8.2,16.2c-4.1,7.3-4.4,15-1.4,22.7c2.4,6.3,7,10.7,13.4,13c5.2,1.9,10.6,2.1,15.9,0.6c6.5-1.8,11.4-5.7,14.5-11.8
	c2.6-5.1,3.3-10.6,2.4-16.2c-0.9-5.5-3.3-10.2-7.5-14C40.7,6.3,35.2,4.6,29,4.6z"/>
<path class="st0" d="M22.6,14v-3.1c0.2,0,0.4,0,0.5,0c2.1,0,4.2,0,6.3,0c2.6,0,3.3,0.8,3.3,3.4c0,9.8,0,19.5,0,29.3
	c0,0.5-0.1,0.7-0.7,0.7c-2.1,0-4.2,0-6.3,0c-0.5,0-0.7-0.2-0.7-0.7c0-9,0-18,0-27c0-0.4,0-0.7-0.1-1.1c-0.2-0.9-0.6-1.3-1.5-1.4
	C23.3,14,23,14,22.6,14z"/>
<path class="st0" d="M37,44V18.2h1.2c1.1,0,2.1,0,3.2,0c2,0.1,2.9,1,2.9,3c0,7.5,0,14.9,0,22.4c0,0.3,0,0.6-0.4,0.5
	c-2.2,0-4.4,0-6.7,0C37.2,44.1,37.1,44.1,37,44z"/>
<path class="st0" d="M21,44.1c-0.2,0-0.3,0-0.5,0c-2.1,0-4.2,0-6.3,0c-0.4,0-0.6-0.1-0.6-0.6c0-7.4,0-14.9,0-22.3c0-2.1,0.9-3,3-3
	c1.4,0,2.9,0,4.4,0V44.1z"/>
</svg>
