<?xml version="1.0" encoding="UTF-8"?>
<svg width="24px" height="24px" viewBox="0 0 24 24" version="1.1" xmlns="http://www.w3.org/2000/svg" xmlns:xlink="http://www.w3.org/1999/xlink">
    <title>9C3CCCAD-0071-4111-9A8B-3A3F5C1815CB</title>
    <defs>
        <path d="M11,7 L13,7 L13,9 L11,9 L11,7 Z M11,11 L13,11 L13,17 L11,17 L11,11 Z M12,2 C6.48,2 2,6.48 2,12 C2,17.52 6.48,22 12,22 C17.52,22 22,17.52 22,12 C22,6.48 17.52,2 12,2 Z M12,20 C7.59,20 4,16.41 4,12 C4,7.59 7.59,4 12,4 C16.41,4 20,7.59 20,12 C20,16.41 16.41,20 12,20 Z" id="path-1"></path>
    </defs>
    <g id="⚙️-Master-Icon-Symbols" stroke="none" stroke-width="1" fill="none" fill-rule="evenodd">
        <g id="System/Information">
            <mask id="mask-2" fill="white">
                <use xlink:href="#path-1"></use>
            </mask>
            <use id="Shape" fill="#000000" fill-rule="nonzero" xlink:href="#path-1"></use>
        </g>
    </g>
</svg>