<svg id="Layer_1" data-name="Layer 1" xmlns="http://www.w3.org/2000/svg" viewBox="0 0 236.44 53.43"><defs><style>.cls-1{fill:#fff;}.cls-2{fill:#e4e4e4;}</style></defs><path class="cls-1" d="M80.67,6.84H90V32.39c0,6,3.29,10.12,10,10.12s9.87-4.12,9.87-10.12V6.84h9.29v25.8c0,10.71-6.13,18-19.16,18S80.67,43.29,80.67,32.71Z" transform="translate(-10.08 -2.28)"/><path class="cls-1" d="M125.63,49.87v-43h9.16v43Z" transform="translate(-10.08 -2.28)"/><path class="cls-2" d="M137.05,51.16,152.34,5.55h5.93L143,51.16Z" transform="translate(-10.08 -2.28)"/><path class="cls-1" d="M162.53,6.84h9.29V32.39c0,6,3.29,10.12,10,10.12s9.87-4.12,9.87-10.12V6.84H201v25.8c0,10.71-6.13,18-19.16,18s-19.28-7.35-19.28-17.93Z" transform="translate(-10.08 -2.28)"/><path class="cls-1" d="M235.55,49.87,224.77,34.13,213.93,49.87H203l15.61-22.06L204,6.84h10.9l9.87,14.71,9.74-14.71h11L230.9,27.74l15.61,22.13Z" transform="translate(-10.08 -2.28)"/><path class="cls-1" d="M63.52,29.22a26.58,26.58,0,0,1-6.23,17.31,25.35,25.35,0,0,1-13.6,8.31,27.23,27.23,0,0,1-9.21.76,26.62,26.62,0,0,1-14-5.21,25.37,25.37,0,0,1-9.93-16.26,27.05,27.05,0,0,1,2.54-17.76A25.27,25.27,0,0,1,30.76,3a23.45,23.45,0,0,1,6.46-.69C47.93,2.82,56.14,7.38,61,17.22A27.28,27.28,0,0,1,63.52,29.22ZM36.81,6.49c-.65,0-1.31,0-2,0a14.51,14.51,0,0,0-1.63.19C26.39,7.77,21,11.13,17.59,17.17a23.51,23.51,0,0,0-1.32,20.9,20.3,20.3,0,0,0,12.31,12,23,23,0,0,0,14.65.57A20.6,20.6,0,0,0,56.55,39.82a23.94,23.94,0,0,0,2.18-15,21.36,21.36,0,0,0-6.92-12.9A21.58,21.58,0,0,0,36.81,6.49Z" transform="translate(-10.08 -2.28)"/><path class="cls-1" d="M31,15.14v-2.9a4,4,0,0,1,.49,0c1.93,0,3.85,0,5.79,0,2.36,0,3.08.75,3.08,3.1q0,13.51,0,27c0,.46-.11.62-.6.62-1.95,0-3.89,0-5.84,0-.47,0-.6-.14-.6-.61q0-12.43,0-24.89a4.61,4.61,0,0,0-.06-1,1.28,1.28,0,0,0-1.38-1.25Z" transform="translate(-10.08 -2.28)"/><path class="cls-1" d="M44.19,42.84V19h1.09c1,0,2,0,2.95,0,1.87.05,2.71.88,2.71,2.75q0,10.31,0,20.62c0,.28,0,.51-.39.5-2.05,0-4.09,0-6.14,0A.46.46,0,0,1,44.19,42.84Z" transform="translate(-10.08 -2.28)"/><path class="cls-1" d="M29.4,42.88c-.17,0-.3,0-.44,0H23.17c-.39,0-.53-.1-.53-.52,0-6.86,0-13.71,0-20.57,0-1.9.84-2.75,2.74-2.79,1.33,0,2.65,0,4,0Z" transform="translate(-10.08 -2.28)"/></svg>